<svg xmlns="http://www.w3.org/2000/svg" width="633" height="115" viewBox="0 0 633 115" fill="none">
<g clip-path="url(#clip0_6_7)">
<path d="M167.993 94V21.7382H183.868V94H167.993ZM178.941 94V81.19H223.722V94H178.941ZM178.941 63.3435V51.6283H218.247V63.3435H178.941ZM178.941 34.4388V21.7382H223.503V34.4388H178.941ZM228.578 94V57.2122V36.5191H241.169V53.7086H243.249C244.271 49.4751 245.621 46.008 247.3 43.3073C248.979 40.5336 250.986 38.4533 253.322 37.0665C255.731 35.6796 258.541 34.9862 261.752 34.9862C265.183 34.9862 268.03 35.7526 270.292 37.2855C272.555 38.8183 274.307 40.9715 275.548 43.7452C276.789 46.4459 277.592 49.767 277.957 53.7086H279.708C280.803 49.4021 282.263 45.862 284.088 43.0883C285.986 40.3146 288.212 38.2709 290.767 36.957C293.394 35.6432 296.277 34.9862 299.416 34.9862C302.555 34.9862 305.292 35.6067 307.628 36.8475C310.036 38.0884 312.044 39.9497 313.649 42.4314C315.255 44.8401 316.46 47.9058 317.263 51.6283C318.065 55.2779 318.467 59.5114 318.467 64.3289V94H302.701V66.2997C302.701 62.3581 302.372 59.0735 301.715 56.4458C301.058 53.7451 300.037 51.7378 298.65 50.424C297.263 49.1101 295.475 48.4532 293.285 48.4532C290.876 48.4532 288.796 49.2926 287.044 50.9714C285.292 52.5772 283.905 54.8035 282.883 57.6501C281.862 60.4968 281.314 63.7449 281.241 67.3945V94H265.803V66.7376C265.803 62.6501 265.438 59.2925 264.709 56.6648C263.979 53.9641 262.92 51.9203 261.533 50.5335C260.147 49.1466 258.395 48.4532 256.278 48.4532C253.796 48.4532 251.68 49.2926 249.928 50.9714C248.176 52.5772 246.826 54.84 245.877 57.7596C244.928 60.6793 244.417 63.9274 244.344 67.504V94H228.578ZM340.177 95.5328C336.965 95.5328 334.119 94.9124 331.637 93.6715C329.155 92.3577 327.221 90.4964 325.834 88.0877C324.447 85.6789 323.754 82.6863 323.754 79.1097C323.754 75.9711 324.338 73.3434 325.506 71.2266C326.747 69.1098 328.535 67.3945 330.871 66.0807C333.206 64.7668 336.09 63.672 339.52 62.7961C342.951 61.9202 346.856 61.1537 351.235 60.4968C353.571 60.1319 355.469 59.8034 356.929 59.5114C358.462 59.1465 359.593 58.599 360.323 57.8691C361.053 57.0662 361.418 55.9348 361.418 54.475C361.418 52.4312 360.688 50.6794 359.228 49.2196C357.768 47.7598 355.469 47.0299 352.33 47.0299C350.213 47.0299 348.243 47.3948 346.418 48.1247C344.666 48.8546 343.133 49.9495 341.819 51.4094C340.579 52.8692 339.666 54.7305 339.082 56.9932L325.177 52.7232C326.053 49.7305 327.294 47.1393 328.9 44.9496C330.579 42.7598 332.586 40.9351 334.922 39.4752C337.257 37.9424 339.922 36.811 342.914 36.0811C345.907 35.3512 349.155 34.9862 352.659 34.9862C358.279 34.9862 362.841 35.8986 366.345 37.7234C369.921 39.4752 372.585 42.2489 374.337 46.0445C376.089 49.767 376.965 54.5845 376.965 60.4968V70.3507C376.965 72.9054 377.001 75.4966 377.074 78.1243C377.22 80.752 377.366 83.4162 377.512 86.1169C377.731 88.7446 377.95 91.3723 378.169 94H364.264C363.972 92.1752 363.68 90.0949 363.388 87.7592C363.169 85.3505 362.987 82.9418 362.841 80.533H360.87C359.848 83.3067 358.389 85.8249 356.491 88.0877C354.593 90.3504 352.257 92.1752 349.484 93.562C346.783 94.8759 343.681 95.5328 340.177 95.5328ZM346.856 84.1461C348.243 84.1461 349.63 83.8907 351.016 83.3797C352.476 82.8688 353.863 82.1753 355.177 81.2994C356.564 80.3506 357.805 79.1827 358.899 77.7958C360.067 76.409 361.016 74.8397 361.746 73.0879L361.527 63.8909L364.045 64.4384C362.732 65.3873 361.199 66.1537 359.447 66.7376C357.695 67.2486 355.87 67.65 353.973 67.942C352.148 68.2339 350.323 68.5624 348.498 68.9274C346.673 69.2923 345.031 69.7668 343.571 70.3507C342.184 70.9346 341.053 71.7375 340.177 72.7594C339.374 73.7083 338.973 75.0587 338.973 76.8105C338.973 79.0732 339.703 80.8615 341.162 82.1753C342.622 83.4892 344.52 84.1461 346.856 84.1461ZM385.282 94V36.5191H401.048V94H385.282ZM393.274 27.8695C390.209 27.8695 387.836 27.2491 386.158 26.0083C384.552 24.6944 383.749 22.7966 383.749 20.3149C383.749 17.7602 384.552 15.8259 386.158 14.5121C387.836 13.1982 390.209 12.5413 393.274 12.5413C396.413 12.5413 398.785 13.1982 400.391 14.5121C402.07 15.8259 402.909 17.7602 402.909 20.3149C402.909 22.7236 402.07 24.5849 400.391 25.8988C398.785 27.2126 396.413 27.8695 393.274 27.8695ZM410.173 94V15.7164H425.72V94H410.173ZM448.21 95.5328C444.999 95.5328 442.152 94.9124 439.67 93.6715C437.189 92.3577 435.254 90.4964 433.868 88.0877C432.481 85.6789 431.787 82.6863 431.787 79.1097C431.787 75.9711 432.371 73.3434 433.539 71.2266C434.78 69.1098 436.568 67.3945 438.904 66.0807C441.24 64.7668 444.123 63.672 447.554 62.7961C450.984 61.9202 454.889 61.1537 459.269 60.4968C461.604 60.1319 463.502 59.8034 464.962 59.5114C466.495 59.1465 467.626 58.599 468.356 57.8691C469.086 57.0662 469.451 55.9348 469.451 54.475C469.451 52.4312 468.721 50.6794 467.261 49.2196C465.801 47.7598 463.502 47.0299 460.364 47.0299C458.247 47.0299 456.276 47.3948 454.451 48.1247C452.699 48.8546 451.167 49.9495 449.853 51.4094C448.612 52.8692 447.7 54.7305 447.116 56.9932L433.211 52.7232C434.087 49.7305 435.327 47.1393 436.933 44.9496C438.612 42.7598 440.619 40.9351 442.955 39.4752C445.291 37.9424 447.955 36.811 450.948 36.0811C453.94 35.3512 457.188 34.9862 460.692 34.9862C466.312 34.9862 470.874 35.8986 474.378 37.7234C477.955 39.4752 480.619 42.2489 482.371 46.0445C484.122 49.767 484.998 54.5845 484.998 60.4968V70.3507C484.998 72.9054 485.035 75.4966 485.108 78.1243C485.254 80.752 485.4 83.4162 485.546 86.1169C485.765 88.7446 485.984 91.3723 486.203 94H472.298C472.006 92.1752 471.714 90.0949 471.422 87.7592C471.203 85.3505 471.02 82.9418 470.874 80.533H468.904C467.882 83.3067 466.422 85.8249 464.524 88.0877C462.626 90.3504 460.291 92.1752 457.517 93.562C454.816 94.8759 451.714 95.5328 448.21 95.5328ZM454.889 84.1461C456.276 84.1461 457.663 83.8907 459.05 83.3797C460.51 82.8688 461.896 82.1753 463.21 81.2994C464.597 80.3506 465.838 79.1827 466.933 77.7958C468.101 76.409 469.05 74.8397 469.78 73.0879L469.561 63.8909L472.079 64.4384C470.765 65.3873 469.232 66.1537 467.48 66.7376C465.728 67.2486 463.904 67.65 462.006 67.942C460.181 68.2339 458.356 68.5624 456.532 68.9274C454.707 69.2923 453.064 69.7668 451.605 70.3507C450.218 70.9346 449.086 71.7375 448.21 72.7594C447.408 73.7083 447.006 75.0587 447.006 76.8105C447.006 79.0732 447.736 80.8615 449.196 82.1753C450.656 83.4892 452.553 84.1461 454.889 84.1461ZM514.665 95.3139C508.242 95.3139 503.497 93.635 500.432 90.2774C497.439 86.8468 495.943 81.4089 495.943 73.9638V48.8911H487.622L487.841 36.5191H493.644C495.906 36.5191 497.585 36.1906 498.68 35.5337C499.775 34.8767 500.432 33.6724 500.651 31.9206L502.074 23.709H511.052V36.5191H525.614V49.3291H511.052V73.3069C511.052 75.9346 511.672 77.8323 512.913 79.0002C514.154 80.1681 516.052 80.752 518.607 80.752C519.994 80.752 521.307 80.606 522.548 80.3141C523.862 80.0221 524.993 79.5476 525.942 78.8907V93.562C523.68 94.292 521.599 94.7664 519.702 94.9854C517.804 95.2044 516.125 95.3139 514.665 95.3139ZM556.988 95.5328C551.222 95.5328 546.149 94.4015 541.769 92.1387C537.39 89.803 533.959 86.4089 531.477 81.9564C528.996 77.4309 527.755 71.8105 527.755 65.0953C527.755 58.3801 528.996 52.7962 531.477 48.3437C534.032 43.8912 537.499 40.5701 541.879 38.3803C546.331 36.1176 551.368 34.9862 556.988 34.9862C562.754 34.9862 567.827 36.1176 572.207 38.3803C576.659 40.6431 580.126 44.0372 582.608 48.5627C585.163 53.0152 586.44 58.599 586.44 65.3143C586.44 72.1025 585.126 77.7594 582.499 82.2848C579.944 86.7373 576.44 90.0584 571.988 92.2482C567.608 94.438 562.608 95.5328 556.988 95.5328ZM557.535 83.8177C560.382 83.8177 562.754 83.1607 564.652 81.8469C566.623 80.533 568.083 78.5623 569.032 75.9346C570.054 73.2339 570.564 69.9857 570.564 66.1902C570.564 62.1756 570.017 58.7815 568.922 56.0078C567.9 53.1612 566.367 51.0079 564.324 49.5481C562.28 48.0152 559.689 47.2488 556.55 47.2488C553.849 47.2488 551.514 47.9058 549.543 49.2196C547.572 50.4605 546.076 52.4312 545.054 55.1319C544.032 57.7596 543.521 61.0078 543.521 64.8763C543.521 71.0806 544.762 75.7886 547.244 79.0002C549.725 82.2118 553.156 83.8177 557.535 83.8177ZM592.175 94V66.1902V36.5191H605.204L605.313 56.1173H607.393C607.977 51.2269 608.963 47.2488 610.349 44.1832C611.809 41.1175 613.817 38.8548 616.371 37.395C618.926 35.9351 622.101 35.2052 625.897 35.2052C626.554 35.2052 627.247 35.2417 627.977 35.3147C628.78 35.3147 629.692 35.4242 630.714 35.6432L630.057 52.3947C628.962 51.8838 627.758 51.5188 626.444 51.2999C625.13 51.0809 623.962 50.9714 622.941 50.9714C620.094 50.9714 617.649 51.6283 615.605 52.9422C613.561 54.256 611.882 56.1538 610.568 58.6355C609.328 61.0443 608.488 64.0004 608.05 67.504V94H592.175Z" fill="#1B1F34"/>
<path fill-rule="evenodd" clip-rule="evenodd" d="M35 0.741089C16.2223 0.741089 1 15.9634 1 34.7411V80C1 98.7777 16.2223 114 35 114H94.9594C113.737 114 128.959 98.7777 128.959 80V34.7411C128.959 15.9634 113.737 0.741089 94.9594 0.741089H35ZM115.337 58.1872C115.337 64.0478 110.586 68.7988 104.725 68.7988C98.8648 68.7988 94.1138 64.0478 94.1138 58.1872C94.1138 52.3266 98.8648 47.5757 104.725 47.5757C110.586 47.5757 115.337 52.3266 115.337 58.1872ZM35.8456 58.1872C35.8456 64.0478 31.0946 68.7988 25.234 68.7988C19.3734 68.7988 14.6225 64.0478 14.6225 58.1872C14.6225 52.3266 19.3734 47.5757 25.234 47.5757C31.0946 47.5757 35.8456 52.3266 35.8456 58.1872ZM67.5798 51.9617C65.856 53.1716 63.559 53.1716 61.8352 51.9617L23.7406 25.2257C19.7418 22.4192 21.7276 16.1331 26.613 16.1331L102.802 16.1331C107.687 16.1331 109.673 22.4192 105.674 25.2257L67.5798 51.9617ZM61.8351 62.7794C63.5589 61.5695 65.856 61.5695 67.5798 62.7794L105.674 89.5154C109.673 92.3219 107.687 98.608 102.802 98.608H26.613C21.7275 98.608 19.7418 92.3219 23.7406 89.5154L61.8351 62.7794Z" fill="#4690F1"/>
</g>
<defs>
<clipPath id="clip0_6_7">
<rect width="633" height="115" fill="white"/>
</clipPath>
</defs>
</svg>